<mxfile host="app.diagrams.net" modified="2024-03-28T07:37:18.573Z" agent="Mozilla/5.0 (Macintosh; Intel Mac OS X 10_15_7) AppleWebKit/537.36 (KHTML, like Gecko) Chrome/123.0.0.0 Safari/537.36" version="24.2.0" etag="F8xtSzp0_My3sDX0hkku" type="github">
  <diagram name="Halaman-1" id="s-LJxYtiSwgC5_khjlJD">
    <mxGraphModel>
      <root>
        <mxCell id="0" />
        <mxCell id="1" parent="0" />
      </root>
    </mxGraphModel>
  </diagram>
</mxfile>
